<?xml version="1.0" encoding="UTF-8"?>
<!DOCTYPE svg PUBLIC "-//W3C//DTD SVG 1.1//EN"
    "http://www.w3.org/Graphics/SVG/1.1/DTD/svg11.dtd"><svg xmlns="http://www.w3.org/2000/svg" height="200.0000" stroke-opacity="1" viewBox="0 0 600 200" font-size="1" width="600.0000" xmlns:xlink="http://www.w3.org/1999/xlink" stroke="rgb(0,0,0)" version="1.1"><defs></defs><g stroke-linejoin="bevel" stroke-opacity="0.0" fill-opacity="1.0" stroke="rgb(0,0,0)" stroke-width="0.0" fill="rgb(255,255,255)" stroke-linecap="butt" stroke-miterlimit="10.0"><path d="M 0.0000,0.0000 v 200.0000 h 600.0000 v -200.0000 Z"/></g><g stroke-linejoin="miter" stroke-opacity="1.0" fill-opacity="0.0" stroke="rgb(211,211,211)" stroke-width="0.9999999999999997" fill="rgb(0,0,0)" stroke-dashoffset="0.0" stroke-linecap="butt" stroke-miterlimit="10.0" stroke-dasharray="4.999999999999998,4.999999999999998"><path d="M 35.3887,15.0000 v 155.0000 "/></g><g stroke-linejoin="miter" stroke-opacity="1.0" fill-opacity="0.0" stroke="rgb(211,211,211)" stroke-width="0.9999999999999997" fill="rgb(0,0,0)" stroke-dashoffset="0.0" stroke-linecap="butt" stroke-miterlimit="10.0" stroke-dasharray="4.999999999999998,4.999999999999998"><path d="M 173.4480,15.0000 v 155.0000 "/></g><g stroke-linejoin="miter" stroke-opacity="1.0" fill-opacity="0.0" stroke="rgb(211,211,211)" stroke-width="0.9999999999999997" fill="rgb(0,0,0)" stroke-dashoffset="0.0" stroke-linecap="butt" stroke-miterlimit="10.0" stroke-dasharray="4.999999999999998,4.999999999999998"><path d="M 311.5074,15.0000 v 155.0000 "/></g><g stroke-linejoin="miter" stroke-opacity="1.0" fill-opacity="0.0" stroke="rgb(211,211,211)" stroke-width="0.9999999999999997" fill="rgb(0,0,0)" stroke-dashoffset="0.0" stroke-linecap="butt" stroke-miterlimit="10.0" stroke-dasharray="4.999999999999998,4.999999999999998"><path d="M 449.5667,15.0000 v 155.0000 "/></g><g stroke-linejoin="miter" stroke-opacity="1.0" fill-opacity="0.0" stroke="rgb(211,211,211)" stroke-width="0.9999999999999997" fill="rgb(0,0,0)" stroke-dashoffset="0.0" stroke-linecap="butt" stroke-miterlimit="10.0" stroke-dasharray="4.999999999999998,4.999999999999998"><path d="M 587.6261,15.0000 v 155.0000 "/></g><g stroke-linejoin="miter" stroke-opacity="1.0" fill-opacity="0.0" stroke="rgb(211,211,211)" stroke-width="0.9999999999999997" fill="rgb(0,0,0)" stroke-dashoffset="0.0" stroke-linecap="butt" stroke-miterlimit="10.0" stroke-dasharray="4.999999999999998,4.999999999999998"><path d="M 35.3887,170.0000 h 552.2374 "/></g><g stroke-linejoin="miter" stroke-opacity="1.0" fill-opacity="0.0" stroke="rgb(211,211,211)" stroke-width="0.9999999999999997" fill="rgb(0,0,0)" stroke-dashoffset="0.0" stroke-linecap="butt" stroke-miterlimit="10.0" stroke-dasharray="4.999999999999998,4.999999999999998"><path d="M 35.3887,131.2500 h 552.2374 "/></g><g stroke-linejoin="miter" stroke-opacity="1.0" fill-opacity="0.0" stroke="rgb(211,211,211)" stroke-width="0.9999999999999997" fill="rgb(0,0,0)" stroke-dashoffset="0.0" stroke-linecap="butt" stroke-miterlimit="10.0" stroke-dasharray="4.999999999999998,4.999999999999998"><path d="M 35.3887,92.5000 h 552.2374 "/></g><g stroke-linejoin="miter" stroke-opacity="1.0" fill-opacity="0.0" stroke="rgb(211,211,211)" stroke-width="0.9999999999999997" fill="rgb(0,0,0)" stroke-dashoffset="0.0" stroke-linecap="butt" stroke-miterlimit="10.0" stroke-dasharray="4.999999999999998,4.999999999999998"><path d="M 35.3887,53.7500 h 552.2374 "/></g><g stroke-linejoin="miter" stroke-opacity="1.0" fill-opacity="0.0" stroke="rgb(211,211,211)" stroke-width="0.9999999999999997" fill="rgb(0,0,0)" stroke-dashoffset="0.0" stroke-linecap="butt" stroke-miterlimit="10.0" stroke-dasharray="4.999999999999998,4.999999999999998"><path d="M 35.3887,15.0000 h 552.2374 "/></g><g stroke-linejoin="round" stroke-opacity="1.0" fill-opacity="0.0" stroke="rgb(0,0,255)" stroke-width="0.9999999999999997" fill="rgb(0,0,0)" stroke-linecap="round" stroke-miterlimit="10.0"><defs><clipPath id="myClip1"><path d="M 35.3887,15.0000 v 155.0000 h 552.2374 v -155.0000 Z"/></clipPath></defs><g clip-path="url(#myClip1)"><path d="M 35.3887,15.0000 h 0.4931 h 0.4931 h 0.4931 h 0.4931 h 0.4931 h 0.4931 h 0.4931 h 0.4931 h 0.4931 h 0.4931 h 0.4931 h 0.4931 h 0.4931 h 0.4931 h 0.4931 h 0.4931 h 0.4931 h 0.4931 h 0.4931 h 0.4931 h 0.4931 h 0.4931 h 0.4931 h 0.4931 h 0.4931 h 0.4931 h 0.4931 h 0.4931 h 0.4931 h 0.4931 h 0.4931 h 0.4931 h 0.4931 h 0.4931 h 0.4931 h 0.4931 h 0.4931 h 0.4931 h 0.4931 h 0.4931 h 0.4931 h 0.4931 h 0.4931 h 0.4931 h 0.4931 h 0.4931 h 0.4931 h 0.4931 h 0.4931 h 0.4931 h 0.4931 h 0.4931 h 0.4931 h 0.4931 h 0.4931 h 0.4931 h 0.4931 h 0.4931 h 0.4931 h 0.4931 h 0.4931 h 0.4931 h 0.4931 h 0.4931 h 0.4931 h 0.4931 h 0.4931 h 0.4931 h 0.4931 h 0.4931 h 0.4931 h 0.4931 h 0.4931 h 0.4931 h 0.4931 h 0.4931 h 0.4931 h 0.4931 h 0.4931 h 0.4931 h 0.4931 h 0.4931 h 0.4931 h 0.4931 h 0.4931 h 0.4931 h 0.4931 h 0.4931 h 0.4931 h 0.4931 h 0.4931 h 0.4931 h 0.4931 h 0.4931 h 0.4931 h 0.4931 h 0.4931 h 0.4931 h 0.4931 h 0.4931 h 0.4931 h 0.4931 h 0.4931 h 0.4931 h 0.4931 h 0.4931 h 0.4931 h 0.4931 h 0.4931 h 0.4931 h 0.4931 h 0.4931 h 0.4931 h 0.4931 h 0.4931 h 0.4931 l 0.4931,155.0000 h 0.4931 h 0.4931 h 0.4931 h 0.4931 h 0.4931 h 0.4931 h 0.4931 h 0.4931 h 0.4931 h 0.4931 h 0.4931 h 0.4931 h 0.4931 h 0.4931 h 0.4931 h 0.4931 h 0.4931 h 0.4931 h 0.4931 h 0.4931 h 0.4931 h 0.4931 h 0.4931 h 0.4931 h 0.4931 h 0.4931 h 0.4931 h 0.4931 h 0.4931 h 0.4931 h 0.4931 h 0.4931 h 0.4931 h 0.4931 h 0.4931 h 0.4931 h 0.4931 h 0.4931 h 0.4931 h 0.4931 h 0.4931 h 0.4931 h 0.4931 h 0.4931 h 0.4931 h 0.4931 h 0.4931 h 0.4931 h 0.4931 h 0.4931 h 0.4931 h 0.4931 h 0.4931 h 0.4931 h 0.4931 h 0.4931 h 0.4931 h 0.4931 h 0.4931 h 0.4931 h 0.4931 h 0.4931 h 0.4931 h 0.4931 h 0.4931 h 0.4931 h 0.4931 h 0.4931 h 0.4931 h 0.4931 h 0.4931 h 0.4931 h 0.4931 h 0.4931 h 0.4931 h 0.4931 h 0.4931 h 0.4931 h 0.4931 h 0.4931 h 0.4931 h 0.4931 h 0.4931 h 0.4931 h 0.4931 h 0.4931 h 0.4931 h 0.4931 h 0.4931 h 0.4931 h 0.4931 h 0.4931 h 0.4931 h 0.4931 h 0.4931 h 0.4931 h 0.4931 h 0.4931 h 0.4931 h 0.4931 h 0.4931 h 0.4931 h 0.4931 h 0.4931 h 0.4931 h 0.4931 h 0.4931 h 0.4931 h 0.4931 h 0.4931 h 0.4931 h 0.4931 h 0.4931 h 0.4931 h 0.4931 h 0.4931 h 0.4931 h 0.4931 h 0.4931 h 0.4931 h 0.4931 h 0.4931 h 0.4931 h 0.4931 h 0.4931 h 0.4931 h 0.4931 h 0.4931 h 0.4931 h 0.4931 h 0.4931 h 0.4931 h 0.4931 h 0.4931 h 0.4931 h 0.4931 h 0.4931 h 0.4931 h 0.4931 h 0.4931 h 0.4931 h 0.4931 h 0.4931 h 0.4931 h 0.4931 h 0.4931 h 0.4931 h 0.4931 h 0.4931 h 0.4931 h 0.4931 h 0.4931 h 0.4931 h 0.4931 h 0.4931 h 0.4931 h 0.4931 h 0.4931 h 0.4931 h 0.4931 h 0.4931 h 0.4931 h 0.4931 h 0.4931 h 0.4931 h 0.4931 h 0.4931 h 0.4931 h 0.4931 h 0.4931 h 0.4931 h 0.4931 h 0.4931 h 0.4931 h 0.4931 h 0.4931 h 0.4931 h 0.4931 h 0.4931 h 0.4931 h 0.4931 h 0.4931 h 0.4931 h 0.4931 h 0.4931 h 0.4931 h 0.4931 h 0.4931 h 0.4931 h 0.4931 h 0.4931 h 0.4931 h 0.4931 h 0.4931 h 0.4931 h 0.4931 h 0.4931 h 0.4931 h 0.4931 h 0.4931 h 0.4931 h 0.4931 h 0.4931 h 0.4931 h 0.4931 h 0.4931 h 0.4931 h 0.4931 h 0.4931 h 0.4931 h 0.4931 h 0.4931 h 0.4931 h 0.4931 h 0.4931 h 0.4931 h 0.4931 h 0.4931 h 0.4931 h 0.4931 h 0.4931 h 0.4931 h 0.4931 h 0.4931 h 0.4931 h 0.4931 h 0.4931 h 0.4931 h 0.4931 h 0.4931 h 0.4931 h 0.4931 h 0.4931 h 0.4931 h 0.4931 h 0.4931 h 0.4931 h 0.4931 h 0.4931 h 0.4931 h 0.4931 h 0.4931 h 0.4931 h 0.4931 h 0.4931 h 0.4931 h 0.4931 h 0.4931 h 0.4931 h 0.4931 h 0.4931 h 0.4931 h 0.4931 h 0.4931 h 0.4931 h 0.4931 h 0.4931 h 0.4931 h 0.4931 h 0.4931 h 0.4931 h 0.4931 h 0.4931 h 0.4931 h 0.4931 h 0.4931 h 0.4931 h 0.4931 h 0.4931 h 0.4931 h 0.4931 h 0.4931 h 0.4931 h 0.4931 h 0.4931 h 0.4931 h 0.4931 h 0.4931 h 0.4931 h 0.4931 h 0.4931 h 0.4931 h 0.4931 h 0.4931 h 0.4931 h 0.4931 h 0.4931 h 0.4931 h 0.4931 h 0.4931 h 0.4931 h 0.4931 h 0.4931 h 0.4931 h 0.4931 h 0.4931 h 0.4931 h 0.4931 h 0.4931 h 0.4931 h 0.4931 h 0.4931 h 0.4931 h 0.4931 h 0.4931 h 0.4931 h 0.4931 h 0.4931 h 0.4931 h 0.4931 h 0.4931 h 0.4931 h 0.4931 h 0.4931 h 0.4931 h 0.4931 h 0.4931 h 0.4931 h 0.4931 h 0.4931 h 0.4931 h 0.4931 h 0.4931 h 0.4931 h 0.4931 h 0.4931 h 0.4931 h 0.4931 h 0.4931 h 0.4931 h 0.4931 h 0.4931 h 0.4931 h 0.4931 h 0.4931 h 0.4931 h 0.4931 h 0.4931 h 0.4931 h 0.4931 h 0.4931 h 0.4931 h 0.4931 h 0.4931 h 0.4931 h 0.4931 h 0.4931 h 0.4931 h 0.4931 h 0.4931 h 0.4931 h 0.4931 h 0.4931 h 0.4931 h 0.4931 h 0.4931 h 0.4931 h 0.4931 h 0.4931 h 0.4931 h 0.4931 h 0.4931 h 0.4931 h 0.4931 h 0.4931 h 0.4931 h 0.4931 h 0.4931 h 0.4931 h 0.4931 h 0.4931 h 0.4931 h 0.4931 h 0.4931 h 0.4931 h 0.4931 h 0.4931 h 0.4931 h 0.4931 h 0.4931 h 0.4931 h 0.4931 h 0.4931 h 0.4931 h 0.4931 h 0.4931 h 0.4931 h 0.4931 h 0.4931 h 0.4931 h 0.4931 h 0.4931 h 0.4931 h 0.4931 h 0.4931 h 0.4931 h 0.4931 h 0.4931 h 0.4931 h 0.4931 h 0.4931 h 0.4931 h 0.4931 h 0.4931 h 0.4931 h 0.4931 h 0.4931 h 0.4931 h 0.4931 h 0.4931 h 0.4931 h 0.4931 h 0.4931 h 0.4931 h 0.4931 h 0.4931 h 0.4931 h 0.4931 h 0.4931 h 0.4931 h 0.4931 h 0.4931 h 0.4931 h 0.4931 h 0.4931 h 0.4931 h 0.4931 h 0.4931 h 0.4931 h 0.4931 h 0.4931 h 0.4931 h 0.4931 h 0.4931 h 0.4931 h 0.4931 h 0.4931 h 0.4931 h 0.4931 h 0.4931 h 0.4931 h 0.4931 h 0.4931 h 0.4931 h 0.4931 h 0.4931 h 0.4931 h 0.4931 h 0.4931 h 0.4931 h 0.4931 h 0.4931 h 0.4931 h 0.4931 h 0.4931 h 0.4931 h 0.4931 h 0.4931 h 0.4931 h 0.4931 h 0.4931 h 0.4931 h 0.4931 h 0.4931 h 0.4931 h 0.4931 h 0.4931 h 0.4931 h 0.4931 h 0.4931 h 0.4931 h 0.4931 h 0.4931 h 0.4931 h 0.4931 h 0.4931 h 0.4931 h 0.4931 h 0.4931 h 0.4931 h 0.4931 h 0.4931 h 0.4931 h 0.4931 h 0.4931 h 0.4931 h 0.4931 h 0.4931 h 0.4931 h 0.4931 h 0.4931 h 0.4931 h 0.4931 h 0.4931 h 0.4931 h 0.4931 h 0.4931 h 0.4931 h 0.4931 h 0.4931 h 0.4931 h 0.4931 h 0.4931 h 0.4931 h 0.4931 h 0.4931 h 0.4931 h 0.4931 h 0.4931 h 0.4931 h 0.4931 h 0.4931 h 0.4931 h 0.4931 h 0.4931 h 0.4931 h 0.4931 h 0.4931 h 0.4931 h 0.4931 h 0.4931 h 0.4931 h 0.4931 h 0.4931 h 0.4931 h 0.4931 h 0.4931 h 0.4931 h 0.4931 h 0.4931 h 0.4931 h 0.4931 h 0.4931 h 0.4931 h 0.4931 h 0.4931 h 0.4931 h 0.4931 h 0.4931 h 0.4931 h 0.4931 h 0.4931 h 0.4931 h 0.4931 h 0.4931 h 0.4931 h 0.4931 h 0.4931 h 0.4931 h 0.4931 h 0.4931 h 0.4931 h 0.4931 h 0.4931 h 0.4931 h 0.4931 h 0.4931 h 0.4931 h 0.4931 h 0.4931 h 0.4931 h 0.4931 h 0.4931 h 0.4931 h 0.4931 h 0.4931 h 0.4931 h 0.4931 h 0.4931 h 0.4931 h 0.4931 h 0.4931 h 0.4931 h 0.4931 h 0.4931 h 0.4931 h 0.4931 h 0.4931 h 0.4931 h 0.4931 h 0.4931 h 0.4931 h 0.4931 h 0.4931 h 0.4931 h 0.4931 h 0.4931 h 0.4931 h 0.4931 h 0.4931 h 0.4931 h 0.4931 h 0.4931 h 0.4931 h 0.4931 h 0.4931 h 0.4931 h 0.4931 h 0.4931 h 0.4931 h 0.4931 h 0.4931 h 0.4931 h 0.4931 h 0.4931 h 0.4931 h 0.4931 h 0.4931 h 0.4931 h 0.4931 h 0.4931 h 0.4931 h 0.4931 h 0.4931 h 0.4931 h 0.4931 h 0.4931 h 0.4931 h 0.4931 h 0.4931 h 0.4931 h 0.4931 h 0.4931 h 0.4931 h 0.4931 h 0.4931 h 0.4931 h 0.4931 h 0.4931 h 0.4931 h 0.4931 h 0.4931 h 0.4931 h 0.4931 h 0.4931 h 0.4931 h 0.4931 h 0.4931 h 0.4931 h 0.4931 h 0.4931 h 0.4931 h 0.4931 h 0.4931 h 0.4931 h 0.4931 h 0.4931 h 0.4931 h 0.4931 h 0.4931 h 0.4931 h 0.4931 h 0.4931 h 0.4931 h 0.4931 h 0.4931 h 0.4931 h 0.4931 h 0.4931 h 0.4931 h 0.4931 h 0.4931 h 0.4931 h 0.4931 h 0.4931 h 0.4931 h 0.4931 h 0.4931 h 0.4931 h 0.4931 h 0.4931 h 0.4931 h 0.4931 h 0.4931 h 0.4931 h 0.4931 h 0.4931 h 0.4931 h 0.4931 h 0.4931 h 0.4931 h 0.4931 h 0.4931 h 0.4931 h 0.4931 h 0.4931 h 0.4931 h 0.4931 h 0.4931 h 0.4931 h 0.4931 h 0.4931 h 0.4931 h 0.4931 h 0.4931 h 0.4931 h 0.4931 h 0.4931 h 0.4931 h 0.4931 h 0.4931 h 0.4931 h 0.4931 h 0.4931 h 0.4931 h 0.4931 h 0.4931 h 0.4931 h 0.4931 h 0.4931 h 0.4931 h 0.4931 h 0.4931 h 0.4931 h 0.4931 h 0.4931 h 0.4931 h 0.4931 h 0.4931 h 0.4931 h 0.4931 h 0.4931 h 0.4931 h 0.4931 h 0.4931 h 0.4931 h 0.4931 h 0.4931 h 0.4931 h 0.4931 h 0.4931 h 0.4931 h 0.4931 h 0.4931 h 0.4931 h 0.4931 h 0.4931 h 0.4931 h 0.4931 h 0.4931 h 0.4931 h 0.4931 h 0.4931 h 0.4931 h 0.4931 h 0.4931 h 0.4931 h 0.4931 h 0.4931 h 0.4931 h 0.4931 h 0.4931 h 0.4931 h 0.4931 h 0.4931 h 0.4931 h 0.4931 h 0.4931 h 0.4931 h 0.4931 h 0.4931 h 0.4931 h 0.4931 h 0.4931 h 0.4931 h 0.4931 h 0.4931 h 0.4931 h 0.4931 h 0.4931 h 0.4931 h 0.4931 h 0.4931 h 0.4931 h 0.4931 h 0.4931 h 0.4931 h 0.4931 h 0.4931 h 0.4931 h 0.4931 h 0.4931 h 0.4931 h 0.4931 h 0.4931 h 0.4931 h 0.4931 h 0.4931 h 0.4931 h 0.4931 h 0.4931 h 0.4931 h 0.4931 h 0.4931 h 0.4931 h 0.4931 h 0.4931 h 0.4931 h 0.4931 h 0.4931 h 0.4931 h 0.4931 h 0.4931 h 0.4931 h 0.4931 h 0.4931 h 0.4931 h 0.4931 h 0.4931 h 0.4931 h 0.4931 h 0.4931 h 0.4931 h 0.4931 h 0.4931 h 0.4931 h 0.4931 h 0.4931 h 0.4931 h 0.4931 h 0.4931 h 0.4931 h 0.4931 h 0.4931 h 0.4931 h 0.4931 h 0.4931 h 0.4931 h 0.4931 h 0.4931 h 0.4931 h 0.4931 h 0.4931 h 0.4931 h 0.4931 h 0.4931 h 0.4931 h 0.4931 h 0.4931 h 0.4931 h 0.4931 h 0.4931 h 0.4931 h 0.4931 h 0.4931 h 0.4931 h 0.4931 h 0.4931 h 0.4931 h 0.4931 h 0.4931 h 0.4931 h 0.4931 h 0.4931 h 0.4931 h 0.4931 h 0.4931 h 0.4931 h 0.4931 h 0.4931 h 0.4931 h 0.4931 h 0.4931 h 0.4931 h 0.4931 h 0.4931 h 0.4931 h 0.4931 h 0.4931 h 0.4931 h 0.4931 h 0.4931 h 0.4931 h 0.4931 h 0.4931 h 0.4931 h 0.4931 h 0.4931 h 0.4931 h 0.4931 h 0.4931 h 0.4931 h 0.4931 h 0.4931 h 0.4931 h 0.4931 h 0.4931 h 0.4931 h 0.4931 h 0.4931 h 0.4931 h 0.4931 h 0.4931 h 0.4931 h 0.4931 h 0.4931 h 0.4931 h 0.4931 h 0.4931 h 0.4931 h 0.4931 h 0.4931 h 0.4931 h 0.4931 h 0.4931 h 0.4931 "/></g></g><g stroke-linejoin="miter" stroke-opacity="1.0" fill-opacity="0.0" stroke="rgb(0,0,0)" stroke-width="0.9999999999999997" fill="rgb(0,0,0)" stroke-linecap="square" stroke-miterlimit="10.0"><path d="M 35.3887,170.0000 v -155.0000 "/></g><g stroke-linejoin="miter" stroke-opacity="1.0" fill-opacity="0.0" stroke="rgb(0,0,0)" stroke-width="0.9999999999999997" fill="rgb(0,0,0)" stroke-linecap="butt" stroke-miterlimit="10.0"><path d="M 35.3887,170.0000 h 2.0000 "/></g><g stroke-linejoin="miter" stroke-opacity="1.0" fill-opacity="0.0" stroke="rgb(0,0,0)" stroke-width="0.9999999999999997" fill="rgb(0,0,0)" stroke-linecap="butt" stroke-miterlimit="10.0"><path d="M 35.3887,166.1250 h 2.0000 "/></g><g stroke-linejoin="miter" stroke-opacity="1.0" fill-opacity="0.0" stroke="rgb(0,0,0)" stroke-width="0.9999999999999997" fill="rgb(0,0,0)" stroke-linecap="butt" stroke-miterlimit="10.0"><path d="M 35.3887,162.2500 h 2.0000 "/></g><g stroke-linejoin="miter" stroke-opacity="1.0" fill-opacity="0.0" stroke="rgb(0,0,0)" stroke-width="0.9999999999999997" fill="rgb(0,0,0)" stroke-linecap="butt" stroke-miterlimit="10.0"><path d="M 35.3887,158.3750 h 2.0000 "/></g><g stroke-linejoin="miter" stroke-opacity="1.0" fill-opacity="0.0" stroke="rgb(0,0,0)" stroke-width="0.9999999999999997" fill="rgb(0,0,0)" stroke-linecap="butt" stroke-miterlimit="10.0"><path d="M 35.3887,154.5000 h 2.0000 "/></g><g stroke-linejoin="miter" stroke-opacity="1.0" fill-opacity="0.0" stroke="rgb(0,0,0)" stroke-width="0.9999999999999997" fill="rgb(0,0,0)" stroke-linecap="butt" stroke-miterlimit="10.0"><path d="M 35.3887,150.6250 h 2.0000 "/></g><g stroke-linejoin="miter" stroke-opacity="1.0" fill-opacity="0.0" stroke="rgb(0,0,0)" stroke-width="0.9999999999999997" fill="rgb(0,0,0)" stroke-linecap="butt" stroke-miterlimit="10.0"><path d="M 35.3887,146.7500 h 2.0000 "/></g><g stroke-linejoin="miter" stroke-opacity="1.0" fill-opacity="0.0" stroke="rgb(0,0,0)" stroke-width="0.9999999999999997" fill="rgb(0,0,0)" stroke-linecap="butt" stroke-miterlimit="10.0"><path d="M 35.3887,142.8750 h 2.0000 "/></g><g stroke-linejoin="miter" stroke-opacity="1.0" fill-opacity="0.0" stroke="rgb(0,0,0)" stroke-width="0.9999999999999997" fill="rgb(0,0,0)" stroke-linecap="butt" stroke-miterlimit="10.0"><path d="M 35.3887,139.0000 h 2.0000 "/></g><g stroke-linejoin="miter" stroke-opacity="1.0" fill-opacity="0.0" stroke="rgb(0,0,0)" stroke-width="0.9999999999999997" fill="rgb(0,0,0)" stroke-linecap="butt" stroke-miterlimit="10.0"><path d="M 35.3887,135.1250 h 2.0000 "/></g><g stroke-linejoin="miter" stroke-opacity="1.0" fill-opacity="0.0" stroke="rgb(0,0,0)" stroke-width="0.9999999999999997" fill="rgb(0,0,0)" stroke-linecap="butt" stroke-miterlimit="10.0"><path d="M 35.3887,131.2500 h 2.0000 "/></g><g stroke-linejoin="miter" stroke-opacity="1.0" fill-opacity="0.0" stroke="rgb(0,0,0)" stroke-width="0.9999999999999997" fill="rgb(0,0,0)" stroke-linecap="butt" stroke-miterlimit="10.0"><path d="M 35.3887,127.3750 h 2.0000 "/></g><g stroke-linejoin="miter" stroke-opacity="1.0" fill-opacity="0.0" stroke="rgb(0,0,0)" stroke-width="0.9999999999999997" fill="rgb(0,0,0)" stroke-linecap="butt" stroke-miterlimit="10.0"><path d="M 35.3887,123.5000 h 2.0000 "/></g><g stroke-linejoin="miter" stroke-opacity="1.0" fill-opacity="0.0" stroke="rgb(0,0,0)" stroke-width="0.9999999999999997" fill="rgb(0,0,0)" stroke-linecap="butt" stroke-miterlimit="10.0"><path d="M 35.3887,119.6250 h 2.0000 "/></g><g stroke-linejoin="miter" stroke-opacity="1.0" fill-opacity="0.0" stroke="rgb(0,0,0)" stroke-width="0.9999999999999997" fill="rgb(0,0,0)" stroke-linecap="butt" stroke-miterlimit="10.0"><path d="M 35.3887,115.7500 h 2.0000 "/></g><g stroke-linejoin="miter" stroke-opacity="1.0" fill-opacity="0.0" stroke="rgb(0,0,0)" stroke-width="0.9999999999999997" fill="rgb(0,0,0)" stroke-linecap="butt" stroke-miterlimit="10.0"><path d="M 35.3887,111.8750 h 2.0000 "/></g><g stroke-linejoin="miter" stroke-opacity="1.0" fill-opacity="0.0" stroke="rgb(0,0,0)" stroke-width="0.9999999999999997" fill="rgb(0,0,0)" stroke-linecap="butt" stroke-miterlimit="10.0"><path d="M 35.3887,108.0000 h 2.0000 "/></g><g stroke-linejoin="miter" stroke-opacity="1.0" fill-opacity="0.0" stroke="rgb(0,0,0)" stroke-width="0.9999999999999997" fill="rgb(0,0,0)" stroke-linecap="butt" stroke-miterlimit="10.0"><path d="M 35.3887,104.1250 h 2.0000 "/></g><g stroke-linejoin="miter" stroke-opacity="1.0" fill-opacity="0.0" stroke="rgb(0,0,0)" stroke-width="0.9999999999999997" fill="rgb(0,0,0)" stroke-linecap="butt" stroke-miterlimit="10.0"><path d="M 35.3887,100.2500 h 2.0000 "/></g><g stroke-linejoin="miter" stroke-opacity="1.0" fill-opacity="0.0" stroke="rgb(0,0,0)" stroke-width="0.9999999999999997" fill="rgb(0,0,0)" stroke-linecap="butt" stroke-miterlimit="10.0"><path d="M 35.3887,96.3750 h 2.0000 "/></g><g stroke-linejoin="miter" stroke-opacity="1.0" fill-opacity="0.0" stroke="rgb(0,0,0)" stroke-width="0.9999999999999997" fill="rgb(0,0,0)" stroke-linecap="butt" stroke-miterlimit="10.0"><path d="M 35.3887,92.5000 h 2.0000 "/></g><g stroke-linejoin="miter" stroke-opacity="1.0" fill-opacity="0.0" stroke="rgb(0,0,0)" stroke-width="0.9999999999999997" fill="rgb(0,0,0)" stroke-linecap="butt" stroke-miterlimit="10.0"><path d="M 35.3887,88.6250 h 2.0000 "/></g><g stroke-linejoin="miter" stroke-opacity="1.0" fill-opacity="0.0" stroke="rgb(0,0,0)" stroke-width="0.9999999999999997" fill="rgb(0,0,0)" stroke-linecap="butt" stroke-miterlimit="10.0"><path d="M 35.3887,84.7500 h 2.0000 "/></g><g stroke-linejoin="miter" stroke-opacity="1.0" fill-opacity="0.0" stroke="rgb(0,0,0)" stroke-width="0.9999999999999997" fill="rgb(0,0,0)" stroke-linecap="butt" stroke-miterlimit="10.0"><path d="M 35.3887,80.8750 h 2.0000 "/></g><g stroke-linejoin="miter" stroke-opacity="1.0" fill-opacity="0.0" stroke="rgb(0,0,0)" stroke-width="0.9999999999999997" fill="rgb(0,0,0)" stroke-linecap="butt" stroke-miterlimit="10.0"><path d="M 35.3887,77.0000 h 2.0000 "/></g><g stroke-linejoin="miter" stroke-opacity="1.0" fill-opacity="0.0" stroke="rgb(0,0,0)" stroke-width="0.9999999999999997" fill="rgb(0,0,0)" stroke-linecap="butt" stroke-miterlimit="10.0"><path d="M 35.3887,73.1250 h 2.0000 "/></g><g stroke-linejoin="miter" stroke-opacity="1.0" fill-opacity="0.0" stroke="rgb(0,0,0)" stroke-width="0.9999999999999997" fill="rgb(0,0,0)" stroke-linecap="butt" stroke-miterlimit="10.0"><path d="M 35.3887,69.2500 h 2.0000 "/></g><g stroke-linejoin="miter" stroke-opacity="1.0" fill-opacity="0.0" stroke="rgb(0,0,0)" stroke-width="0.9999999999999997" fill="rgb(0,0,0)" stroke-linecap="butt" stroke-miterlimit="10.0"><path d="M 35.3887,65.3750 h 2.0000 "/></g><g stroke-linejoin="miter" stroke-opacity="1.0" fill-opacity="0.0" stroke="rgb(0,0,0)" stroke-width="0.9999999999999997" fill="rgb(0,0,0)" stroke-linecap="butt" stroke-miterlimit="10.0"><path d="M 35.3887,61.5000 h 2.0000 "/></g><g stroke-linejoin="miter" stroke-opacity="1.0" fill-opacity="0.0" stroke="rgb(0,0,0)" stroke-width="0.9999999999999997" fill="rgb(0,0,0)" stroke-linecap="butt" stroke-miterlimit="10.0"><path d="M 35.3887,57.6250 h 2.0000 "/></g><g stroke-linejoin="miter" stroke-opacity="1.0" fill-opacity="0.0" stroke="rgb(0,0,0)" stroke-width="0.9999999999999997" fill="rgb(0,0,0)" stroke-linecap="butt" stroke-miterlimit="10.0"><path d="M 35.3887,53.7500 h 2.0000 "/></g><g stroke-linejoin="miter" stroke-opacity="1.0" fill-opacity="0.0" stroke="rgb(0,0,0)" stroke-width="0.9999999999999997" fill="rgb(0,0,0)" stroke-linecap="butt" stroke-miterlimit="10.0"><path d="M 35.3887,49.8750 h 2.0000 "/></g><g stroke-linejoin="miter" stroke-opacity="1.0" fill-opacity="0.0" stroke="rgb(0,0,0)" stroke-width="0.9999999999999997" fill="rgb(0,0,0)" stroke-linecap="butt" stroke-miterlimit="10.0"><path d="M 35.3887,46.0000 h 2.0000 "/></g><g stroke-linejoin="miter" stroke-opacity="1.0" fill-opacity="0.0" stroke="rgb(0,0,0)" stroke-width="0.9999999999999997" fill="rgb(0,0,0)" stroke-linecap="butt" stroke-miterlimit="10.0"><path d="M 35.3887,42.1250 h 2.0000 "/></g><g stroke-linejoin="miter" stroke-opacity="1.0" fill-opacity="0.0" stroke="rgb(0,0,0)" stroke-width="0.9999999999999997" fill="rgb(0,0,0)" stroke-linecap="butt" stroke-miterlimit="10.0"><path d="M 35.3887,38.2500 h 2.0000 "/></g><g stroke-linejoin="miter" stroke-opacity="1.0" fill-opacity="0.0" stroke="rgb(0,0,0)" stroke-width="0.9999999999999997" fill="rgb(0,0,0)" stroke-linecap="butt" stroke-miterlimit="10.0"><path d="M 35.3887,34.3750 h 2.0000 "/></g><g stroke-linejoin="miter" stroke-opacity="1.0" fill-opacity="0.0" stroke="rgb(0,0,0)" stroke-width="0.9999999999999997" fill="rgb(0,0,0)" stroke-linecap="butt" stroke-miterlimit="10.0"><path d="M 35.3887,30.5000 h 2.0000 "/></g><g stroke-linejoin="miter" stroke-opacity="1.0" fill-opacity="0.0" stroke="rgb(0,0,0)" stroke-width="0.9999999999999997" fill="rgb(0,0,0)" stroke-linecap="butt" stroke-miterlimit="10.0"><path d="M 35.3887,26.6250 h 2.0000 "/></g><g stroke-linejoin="miter" stroke-opacity="1.0" fill-opacity="0.0" stroke="rgb(0,0,0)" stroke-width="0.9999999999999997" fill="rgb(0,0,0)" stroke-linecap="butt" stroke-miterlimit="10.0"><path d="M 35.3887,22.7500 h 2.0000 "/></g><g stroke-linejoin="miter" stroke-opacity="1.0" fill-opacity="0.0" stroke="rgb(0,0,0)" stroke-width="0.9999999999999997" fill="rgb(0,0,0)" stroke-linecap="butt" stroke-miterlimit="10.0"><path d="M 35.3887,18.8750 h 2.0000 "/></g><g stroke-linejoin="miter" stroke-opacity="1.0" fill-opacity="0.0" stroke="rgb(0,0,0)" stroke-width="0.9999999999999997" fill="rgb(0,0,0)" stroke-linecap="butt" stroke-miterlimit="10.0"><path d="M 35.3887,15.0000 h 2.0000 "/></g><g stroke-linejoin="miter" stroke-opacity="1.0" fill-opacity="0.0" stroke="rgb(0,0,0)" stroke-width="0.9999999999999997" fill="rgb(0,0,0)" stroke-linecap="butt" stroke-miterlimit="10.0"><path d="M 35.3887,170.0000 h 5.0000 "/></g><g stroke-linejoin="miter" stroke-opacity="1.0" fill-opacity="0.0" stroke="rgb(0,0,0)" stroke-width="0.9999999999999997" fill="rgb(0,0,0)" stroke-linecap="butt" stroke-miterlimit="10.0"><path d="M 35.3887,131.2500 h 5.0000 "/></g><g stroke-linejoin="miter" stroke-opacity="1.0" fill-opacity="0.0" stroke="rgb(0,0,0)" stroke-width="0.9999999999999997" fill="rgb(0,0,0)" stroke-linecap="butt" stroke-miterlimit="10.0"><path d="M 35.3887,92.5000 h 5.0000 "/></g><g stroke-linejoin="miter" stroke-opacity="1.0" fill-opacity="0.0" stroke="rgb(0,0,0)" stroke-width="0.9999999999999997" fill="rgb(0,0,0)" stroke-linecap="butt" stroke-miterlimit="10.0"><path d="M 35.3887,53.7500 h 5.0000 "/></g><g stroke-linejoin="miter" stroke-opacity="1.0" fill-opacity="0.0" stroke="rgb(0,0,0)" stroke-width="0.9999999999999997" fill="rgb(0,0,0)" stroke-linecap="butt" stroke-miterlimit="10.0"><path d="M 35.3887,15.0000 h 5.0000 "/></g><g stroke-linejoin="bevel" stroke-opacity="0.0" fill-opacity="1.0" stroke="rgb(0,0,0)" stroke-width="0.0" fill="rgb(0,0,0)" stroke-linecap="butt" stroke-miterlimit="10.0"><path d="M 17.9412,173.4454 ZM 18.3718,170.4832 h 2.4160 v 0.6618 h -2.4160 v -0.6618 ZM 21.2080,173.4454 ZM 22.0378,172.7311 h 1.5336 v -4.9370 h -1.2185 v -0.5567 c 0.4622,-0.0840 0.8036,-0.2048 0.8036 -0.2048c 0.3414,-0.1208 0.6145,-0.2889 0.6145 -0.2889h 0.6618 v 5.9874 h 1.3866 v 0.7143 h -3.7815 v -0.7143 Z"/></g><g stroke-linejoin="bevel" stroke-opacity="0.0" fill-opacity="1.0" stroke="rgb(0,0,0)" stroke-width="0.0" fill="rgb(0,0,0)" stroke-linecap="butt" stroke-miterlimit="10.0"><path d="M 10.0000,134.6954 ZM 10.4307,131.7332 h 2.4160 v 0.6618 h -2.4160 v -0.6618 ZM 13.2668,134.6954 ZM 15.8824,134.8214 c -1.0189,-0.0000 -1.5861,-0.9034 -1.5861 -0.9034c -0.5672,-0.9034 -0.5672,-2.5945 -0.5672 -2.5945c 0.0000,-1.6912 0.5672,-2.5735 0.5672 -2.5735c 0.5672,-0.8824 1.5861,-0.8824 1.5861 -0.8824c 1.0084,0.0000 1.5756,0.8824 1.5756 0.8824c 0.5672,0.8824 0.5672,2.5735 0.5672 2.5735c 0.0000,1.6912 -0.5672,2.5945 -0.5672 2.5945c -0.5672,0.9034 -1.5756,0.9034 -1.5756 0.9034ZM 15.8824,134.8214 ZM 15.8824,134.1282 c 0.2941,0.0000 0.5305,-0.1628 0.5305 -0.1628c 0.2363,-0.1628 0.4097,-0.5042 0.4097 -0.5042c 0.1733,-0.3414 0.2679,-0.8718 0.2679 -0.8718c 0.0945,-0.5305 0.0945,-1.2658 0.0945 -1.2658c 0.0000,-0.7353 -0.0945,-1.2605 -0.0945 -1.2605c -0.0945,-0.5252 -0.2679,-0.8561 -0.2679 -0.8561c -0.1733,-0.3309 -0.4097,-0.4884 -0.4097 -0.4884c -0.2363,-0.1576 -0.5305,-0.1576 -0.5305 -0.1576c -0.2941,-0.0000 -0.5357,0.1576 -0.5357 0.1576c -0.2416,0.1576 -0.4149,0.4884 -0.4149 0.4884c -0.1733,0.3309 -0.2679,0.8561 -0.2679 0.8561c -0.0945,0.5252 -0.0945,1.2605 -0.0945 1.2605c 0.0000,1.4706 0.3624,2.1376 0.3624 2.1376c 0.3624,0.6670 0.9506,0.6670 0.9506 0.6670ZM 18.4874,134.6954 ZM 19.1702,134.1702 c 0.0000,-0.3046 0.1838,-0.4884 0.1838 -0.4884c 0.1838,-0.1838 0.4464,-0.1838 0.4464 -0.1838c 0.2521,0.0000 0.4359,0.1838 0.4359 0.1838c 0.1838,0.1838 0.1838,0.4884 0.1838 0.4884c 0.0000,0.2836 -0.1838,0.4674 -0.1838 0.4674c -0.1838,0.1838 -0.4359,0.1838 -0.4359 0.1838c -0.2626,-0.0000 -0.4464,-0.1838 -0.4464 -0.1838c -0.1838,-0.1838 -0.1838,-0.4674 -0.1838 -0.4674ZM 21.1029,134.6954 ZM 21.7857,133.3403 c 0.2941,0.3046 0.6985,0.5357 0.6985 0.5357c 0.4044,0.2311 0.9926,0.2311 0.9926 0.2311c 0.3046,0.0000 0.5725,-0.1103 0.5725 -0.1103c 0.2679,-0.1103 0.4674,-0.3099 0.4674 -0.3099c 0.1996,-0.1996 0.3151,-0.4832 0.3151 -0.4832c 0.1155,-0.2836 0.1155,-0.6303 0.1155 -0.6303c 0.0000,-0.6933 -0.3887,-1.0819 -0.3887 -1.0819c -0.3887,-0.3887 -1.0399,-0.3887 -1.0399 -0.3887c -0.3466,-0.0000 -0.5935,0.1050 -0.5935 0.1050c -0.2468,0.1050 -0.5515,0.3046 -0.5515 0.3046l -0.4622,-0.2941 l 0.2206,-3.2248 h 3.3508 v 0.7458 h -2.5945 l -0.1786,1.9853 c 0.2416,-0.1261 0.4832,-0.1996 0.4832 -0.1996c 0.2416,-0.0735 0.5462,-0.0735 0.5462 -0.0735c 0.4307,0.0000 0.8088,0.1261 0.8088 0.1261c 0.3782,0.1261 0.6618,0.3834 0.6618 0.3834c 0.2836,0.2574 0.4464,0.6513 0.4464 0.6513c 0.1628,0.3939 0.1628,0.9401 0.1628 0.9401c 0.0000,0.5462 -0.1891,0.9664 -0.1891 0.9664c -0.1891,0.4202 -0.5042,0.7090 -0.5042 0.7090c -0.3151,0.2889 -0.7195,0.4412 -0.7195 0.4412c -0.4044,0.1523 -0.8456,0.1523 -0.8456 0.1523c -0.3992,-0.0000 -0.7300,-0.0788 -0.7300 -0.0788c -0.3309,-0.0788 -0.5987,-0.2048 -0.5987 -0.2048c -0.2679,-0.1261 -0.4832,-0.2889 -0.4832 -0.2889c -0.2153,-0.1628 -0.3834,-0.3414 -0.3834 -0.3414Z"/></g><g stroke-linejoin="bevel" stroke-opacity="0.0" fill-opacity="1.0" stroke="rgb(0,0,0)" stroke-width="0.0" fill="rgb(0,0,0)" stroke-linecap="butt" stroke-miterlimit="10.0"><path d="M 21.0924,95.9454 ZM 23.7080,96.0714 c -1.0189,-0.0000 -1.5861,-0.9034 -1.5861 -0.9034c -0.5672,-0.9034 -0.5672,-2.5945 -0.5672 -2.5945c 0.0000,-1.6912 0.5672,-2.5735 0.5672 -2.5735c 0.5672,-0.8824 1.5861,-0.8824 1.5861 -0.8824c 1.0084,0.0000 1.5756,0.8824 1.5756 0.8824c 0.5672,0.8824 0.5672,2.5735 0.5672 2.5735c 0.0000,1.6912 -0.5672,2.5945 -0.5672 2.5945c -0.5672,0.9034 -1.5756,0.9034 -1.5756 0.9034ZM 23.7080,96.0714 ZM 23.7080,95.3782 c 0.2941,0.0000 0.5305,-0.1628 0.5305 -0.1628c 0.2363,-0.1628 0.4097,-0.5042 0.4097 -0.5042c 0.1733,-0.3414 0.2679,-0.8718 0.2679 -0.8718c 0.0945,-0.5305 0.0945,-1.2658 0.0945 -1.2658c 0.0000,-0.7353 -0.0945,-1.2605 -0.0945 -1.2605c -0.0945,-0.5252 -0.2679,-0.8561 -0.2679 -0.8561c -0.1733,-0.3309 -0.4097,-0.4884 -0.4097 -0.4884c -0.2363,-0.1576 -0.5305,-0.1576 -0.5305 -0.1576c -0.2941,-0.0000 -0.5357,0.1576 -0.5357 0.1576c -0.2416,0.1576 -0.4149,0.4884 -0.4149 0.4884c -0.1733,0.3309 -0.2679,0.8561 -0.2679 0.8561c -0.0945,0.5252 -0.0945,1.2605 -0.0945 1.2605c 0.0000,1.4706 0.3624,2.1376 0.3624 2.1376c 0.3624,0.6670 0.9506,0.6670 0.9506 0.6670Z"/></g><g stroke-linejoin="bevel" stroke-opacity="0.0" fill-opacity="1.0" stroke="rgb(0,0,0)" stroke-width="0.0" fill="rgb(0,0,0)" stroke-linecap="butt" stroke-miterlimit="10.0"><path d="M 13.2983,57.1954 ZM 15.9139,57.3214 c -1.0189,-0.0000 -1.5861,-0.9034 -1.5861 -0.9034c -0.5672,-0.9034 -0.5672,-2.5945 -0.5672 -2.5945c 0.0000,-1.6912 0.5672,-2.5735 0.5672 -2.5735c 0.5672,-0.8824 1.5861,-0.8824 1.5861 -0.8824c 1.0084,0.0000 1.5756,0.8824 1.5756 0.8824c 0.5672,0.8824 0.5672,2.5735 0.5672 2.5735c 0.0000,1.6912 -0.5672,2.5945 -0.5672 2.5945c -0.5672,0.9034 -1.5756,0.9034 -1.5756 0.9034ZM 15.9139,57.3214 ZM 15.9139,56.6282 c 0.2941,0.0000 0.5305,-0.1628 0.5305 -0.1628c 0.2363,-0.1628 0.4097,-0.5042 0.4097 -0.5042c 0.1733,-0.3414 0.2679,-0.8718 0.2679 -0.8718c 0.0945,-0.5305 0.0945,-1.2658 0.0945 -1.2658c 0.0000,-0.7353 -0.0945,-1.2605 -0.0945 -1.2605c -0.0945,-0.5252 -0.2679,-0.8561 -0.2679 -0.8561c -0.1733,-0.3309 -0.4097,-0.4884 -0.4097 -0.4884c -0.2363,-0.1576 -0.5305,-0.1576 -0.5305 -0.1576c -0.2941,-0.0000 -0.5357,0.1576 -0.5357 0.1576c -0.2416,0.1576 -0.4149,0.4884 -0.4149 0.4884c -0.1733,0.3309 -0.2679,0.8561 -0.2679 0.8561c -0.0945,0.5252 -0.0945,1.2605 -0.0945 1.2605c 0.0000,1.4706 0.3624,2.1376 0.3624 2.1376c 0.3624,0.6670 0.9506,0.6670 0.9506 0.6670ZM 18.5189,57.1954 ZM 19.2017,56.6702 c 0.0000,-0.3046 0.1838,-0.4884 0.1838 -0.4884c 0.1838,-0.1838 0.4464,-0.1838 0.4464 -0.1838c 0.2521,0.0000 0.4359,0.1838 0.4359 0.1838c 0.1838,0.1838 0.1838,0.4884 0.1838 0.4884c 0.0000,0.2836 -0.1838,0.4674 -0.1838 0.4674c -0.1838,0.1838 -0.4359,0.1838 -0.4359 0.1838c -0.2626,-0.0000 -0.4464,-0.1838 -0.4464 -0.1838c -0.1838,-0.1838 -0.1838,-0.4674 -0.1838 -0.4674ZM 21.1345,57.1954 ZM 21.8172,55.8403 c 0.2941,0.3046 0.6985,0.5357 0.6985 0.5357c 0.4044,0.2311 0.9926,0.2311 0.9926 0.2311c 0.3046,0.0000 0.5725,-0.1103 0.5725 -0.1103c 0.2679,-0.1103 0.4674,-0.3099 0.4674 -0.3099c 0.1996,-0.1996 0.3151,-0.4832 0.3151 -0.4832c 0.1155,-0.2836 0.1155,-0.6303 0.1155 -0.6303c 0.0000,-0.6933 -0.3887,-1.0819 -0.3887 -1.0819c -0.3887,-0.3887 -1.0399,-0.3887 -1.0399 -0.3887c -0.3466,-0.0000 -0.5935,0.1050 -0.5935 0.1050c -0.2468,0.1050 -0.5515,0.3046 -0.5515 0.3046l -0.4622,-0.2941 l 0.2206,-3.2248 h 3.3508 v 0.7458 h -2.5945 l -0.1786,1.9853 c 0.2416,-0.1261 0.4832,-0.1996 0.4832 -0.1996c 0.2416,-0.0735 0.5462,-0.0735 0.5462 -0.0735c 0.4307,0.0000 0.8088,0.1261 0.8088 0.1261c 0.3782,0.1261 0.6618,0.3834 0.6618 0.3834c 0.2836,0.2574 0.4464,0.6513 0.4464 0.6513c 0.1628,0.3939 0.1628,0.9401 0.1628 0.9401c 0.0000,0.5462 -0.1891,0.9664 -0.1891 0.9664c -0.1891,0.4202 -0.5042,0.7090 -0.5042 0.7090c -0.3151,0.2889 -0.7195,0.4412 -0.7195 0.4412c -0.4044,0.1523 -0.8456,0.1523 -0.8456 0.1523c -0.3992,-0.0000 -0.7300,-0.0788 -0.7300 -0.0788c -0.3309,-0.0788 -0.5987,-0.2048 -0.5987 -0.2048c -0.2679,-0.1261 -0.4832,-0.2889 -0.4832 -0.2889c -0.2153,-0.1628 -0.3834,-0.3414 -0.3834 -0.3414Z"/></g><g stroke-linejoin="bevel" stroke-opacity="0.0" fill-opacity="1.0" stroke="rgb(0,0,0)" stroke-width="0.0" fill="rgb(0,0,0)" stroke-linecap="butt" stroke-miterlimit="10.0"><path d="M 21.6071,18.4454 ZM 22.4370,17.7311 h 1.5336 v -4.9370 h -1.2185 v -0.5567 c 0.4622,-0.0840 0.8036,-0.2048 0.8036 -0.2048c 0.3414,-0.1208 0.6145,-0.2889 0.6145 -0.2889h 0.6618 v 5.9874 h 1.3866 v 0.7143 h -3.7815 v -0.7143 Z"/></g><g stroke-linejoin="miter" stroke-opacity="1.0" fill-opacity="0.0" stroke="rgb(0,0,0)" stroke-width="0.9999999999999997" fill="rgb(0,0,0)" stroke-linecap="square" stroke-miterlimit="10.0"><path d="M 35.3887,170.0000 h 552.2374 "/></g><g stroke-linejoin="miter" stroke-opacity="1.0" fill-opacity="0.0" stroke="rgb(0,0,0)" stroke-width="0.9999999999999997" fill="rgb(0,0,0)" stroke-linecap="butt" stroke-miterlimit="10.0"><path d="M 35.3887,170.0000 v -2.0000 "/></g><g stroke-linejoin="miter" stroke-opacity="1.0" fill-opacity="0.0" stroke="rgb(0,0,0)" stroke-width="0.9999999999999997" fill="rgb(0,0,0)" stroke-linecap="butt" stroke-miterlimit="10.0"><path d="M 49.1946,170.0000 v -2.0000 "/></g><g stroke-linejoin="miter" stroke-opacity="1.0" fill-opacity="0.0" stroke="rgb(0,0,0)" stroke-width="0.9999999999999997" fill="rgb(0,0,0)" stroke-linecap="butt" stroke-miterlimit="10.0"><path d="M 63.0005,170.0000 v -2.0000 "/></g><g stroke-linejoin="miter" stroke-opacity="1.0" fill-opacity="0.0" stroke="rgb(0,0,0)" stroke-width="0.9999999999999997" fill="rgb(0,0,0)" stroke-linecap="butt" stroke-miterlimit="10.0"><path d="M 76.8065,170.0000 v -2.0000 "/></g><g stroke-linejoin="miter" stroke-opacity="1.0" fill-opacity="0.0" stroke="rgb(0,0,0)" stroke-width="0.9999999999999997" fill="rgb(0,0,0)" stroke-linecap="butt" stroke-miterlimit="10.0"><path d="M 90.6124,170.0000 v -2.0000 "/></g><g stroke-linejoin="miter" stroke-opacity="1.0" fill-opacity="0.0" stroke="rgb(0,0,0)" stroke-width="0.9999999999999997" fill="rgb(0,0,0)" stroke-linecap="butt" stroke-miterlimit="10.0"><path d="M 104.4183,170.0000 v -2.0000 "/></g><g stroke-linejoin="miter" stroke-opacity="1.0" fill-opacity="0.0" stroke="rgb(0,0,0)" stroke-width="0.9999999999999997" fill="rgb(0,0,0)" stroke-linecap="butt" stroke-miterlimit="10.0"><path d="M 118.2243,170.0000 v -2.0000 "/></g><g stroke-linejoin="miter" stroke-opacity="1.0" fill-opacity="0.0" stroke="rgb(0,0,0)" stroke-width="0.9999999999999997" fill="rgb(0,0,0)" stroke-linecap="butt" stroke-miterlimit="10.0"><path d="M 132.0302,170.0000 v -2.0000 "/></g><g stroke-linejoin="miter" stroke-opacity="1.0" fill-opacity="0.0" stroke="rgb(0,0,0)" stroke-width="0.9999999999999997" fill="rgb(0,0,0)" stroke-linecap="butt" stroke-miterlimit="10.0"><path d="M 145.8361,170.0000 v -2.0000 "/></g><g stroke-linejoin="miter" stroke-opacity="1.0" fill-opacity="0.0" stroke="rgb(0,0,0)" stroke-width="0.9999999999999997" fill="rgb(0,0,0)" stroke-linecap="butt" stroke-miterlimit="10.0"><path d="M 159.6421,170.0000 v -2.0000 "/></g><g stroke-linejoin="miter" stroke-opacity="1.0" fill-opacity="0.0" stroke="rgb(0,0,0)" stroke-width="0.9999999999999997" fill="rgb(0,0,0)" stroke-linecap="butt" stroke-miterlimit="10.0"><path d="M 173.4480,170.0000 v -2.0000 "/></g><g stroke-linejoin="miter" stroke-opacity="1.0" fill-opacity="0.0" stroke="rgb(0,0,0)" stroke-width="0.9999999999999997" fill="rgb(0,0,0)" stroke-linecap="butt" stroke-miterlimit="10.0"><path d="M 187.2539,170.0000 v -2.0000 "/></g><g stroke-linejoin="miter" stroke-opacity="1.0" fill-opacity="0.0" stroke="rgb(0,0,0)" stroke-width="0.9999999999999997" fill="rgb(0,0,0)" stroke-linecap="butt" stroke-miterlimit="10.0"><path d="M 201.0599,170.0000 v -2.0000 "/></g><g stroke-linejoin="miter" stroke-opacity="1.0" fill-opacity="0.0" stroke="rgb(0,0,0)" stroke-width="0.9999999999999997" fill="rgb(0,0,0)" stroke-linecap="butt" stroke-miterlimit="10.0"><path d="M 214.8658,170.0000 v -2.0000 "/></g><g stroke-linejoin="miter" stroke-opacity="1.0" fill-opacity="0.0" stroke="rgb(0,0,0)" stroke-width="0.9999999999999997" fill="rgb(0,0,0)" stroke-linecap="butt" stroke-miterlimit="10.0"><path d="M 228.6717,170.0000 v -2.0000 "/></g><g stroke-linejoin="miter" stroke-opacity="1.0" fill-opacity="0.0" stroke="rgb(0,0,0)" stroke-width="0.9999999999999997" fill="rgb(0,0,0)" stroke-linecap="butt" stroke-miterlimit="10.0"><path d="M 242.4777,170.0000 v -2.0000 "/></g><g stroke-linejoin="miter" stroke-opacity="1.0" fill-opacity="0.0" stroke="rgb(0,0,0)" stroke-width="0.9999999999999997" fill="rgb(0,0,0)" stroke-linecap="butt" stroke-miterlimit="10.0"><path d="M 256.2836,170.0000 v -2.0000 "/></g><g stroke-linejoin="miter" stroke-opacity="1.0" fill-opacity="0.0" stroke="rgb(0,0,0)" stroke-width="0.9999999999999997" fill="rgb(0,0,0)" stroke-linecap="butt" stroke-miterlimit="10.0"><path d="M 270.0895,170.0000 v -2.0000 "/></g><g stroke-linejoin="miter" stroke-opacity="1.0" fill-opacity="0.0" stroke="rgb(0,0,0)" stroke-width="0.9999999999999997" fill="rgb(0,0,0)" stroke-linecap="butt" stroke-miterlimit="10.0"><path d="M 283.8955,170.0000 v -2.0000 "/></g><g stroke-linejoin="miter" stroke-opacity="1.0" fill-opacity="0.0" stroke="rgb(0,0,0)" stroke-width="0.9999999999999997" fill="rgb(0,0,0)" stroke-linecap="butt" stroke-miterlimit="10.0"><path d="M 297.7014,170.0000 v -2.0000 "/></g><g stroke-linejoin="miter" stroke-opacity="1.0" fill-opacity="0.0" stroke="rgb(0,0,0)" stroke-width="0.9999999999999997" fill="rgb(0,0,0)" stroke-linecap="butt" stroke-miterlimit="10.0"><path d="M 311.5074,170.0000 v -2.0000 "/></g><g stroke-linejoin="miter" stroke-opacity="1.0" fill-opacity="0.0" stroke="rgb(0,0,0)" stroke-width="0.9999999999999997" fill="rgb(0,0,0)" stroke-linecap="butt" stroke-miterlimit="10.0"><path d="M 325.3133,170.0000 v -2.0000 "/></g><g stroke-linejoin="miter" stroke-opacity="1.0" fill-opacity="0.0" stroke="rgb(0,0,0)" stroke-width="0.9999999999999997" fill="rgb(0,0,0)" stroke-linecap="butt" stroke-miterlimit="10.0"><path d="M 339.1192,170.0000 v -2.0000 "/></g><g stroke-linejoin="miter" stroke-opacity="1.0" fill-opacity="0.0" stroke="rgb(0,0,0)" stroke-width="0.9999999999999997" fill="rgb(0,0,0)" stroke-linecap="butt" stroke-miterlimit="10.0"><path d="M 352.9252,170.0000 v -2.0000 "/></g><g stroke-linejoin="miter" stroke-opacity="1.0" fill-opacity="0.0" stroke="rgb(0,0,0)" stroke-width="0.9999999999999997" fill="rgb(0,0,0)" stroke-linecap="butt" stroke-miterlimit="10.0"><path d="M 366.7311,170.0000 v -2.0000 "/></g><g stroke-linejoin="miter" stroke-opacity="1.0" fill-opacity="0.0" stroke="rgb(0,0,0)" stroke-width="0.9999999999999997" fill="rgb(0,0,0)" stroke-linecap="butt" stroke-miterlimit="10.0"><path d="M 380.5370,170.0000 v -2.0000 "/></g><g stroke-linejoin="miter" stroke-opacity="1.0" fill-opacity="0.0" stroke="rgb(0,0,0)" stroke-width="0.9999999999999997" fill="rgb(0,0,0)" stroke-linecap="butt" stroke-miterlimit="10.0"><path d="M 394.3430,170.0000 v -2.0000 "/></g><g stroke-linejoin="miter" stroke-opacity="1.0" fill-opacity="0.0" stroke="rgb(0,0,0)" stroke-width="0.9999999999999997" fill="rgb(0,0,0)" stroke-linecap="butt" stroke-miterlimit="10.0"><path d="M 408.1489,170.0000 v -2.0000 "/></g><g stroke-linejoin="miter" stroke-opacity="1.0" fill-opacity="0.0" stroke="rgb(0,0,0)" stroke-width="0.9999999999999997" fill="rgb(0,0,0)" stroke-linecap="butt" stroke-miterlimit="10.0"><path d="M 421.9548,170.0000 v -2.0000 "/></g><g stroke-linejoin="miter" stroke-opacity="1.0" fill-opacity="0.0" stroke="rgb(0,0,0)" stroke-width="0.9999999999999997" fill="rgb(0,0,0)" stroke-linecap="butt" stroke-miterlimit="10.0"><path d="M 435.7608,170.0000 v -2.0000 "/></g><g stroke-linejoin="miter" stroke-opacity="1.0" fill-opacity="0.0" stroke="rgb(0,0,0)" stroke-width="0.9999999999999997" fill="rgb(0,0,0)" stroke-linecap="butt" stroke-miterlimit="10.0"><path d="M 449.5667,170.0000 v -2.0000 "/></g><g stroke-linejoin="miter" stroke-opacity="1.0" fill-opacity="0.0" stroke="rgb(0,0,0)" stroke-width="0.9999999999999997" fill="rgb(0,0,0)" stroke-linecap="butt" stroke-miterlimit="10.0"><path d="M 463.3726,170.0000 v -2.0000 "/></g><g stroke-linejoin="miter" stroke-opacity="1.0" fill-opacity="0.0" stroke="rgb(0,0,0)" stroke-width="0.9999999999999997" fill="rgb(0,0,0)" stroke-linecap="butt" stroke-miterlimit="10.0"><path d="M 477.1786,170.0000 v -2.0000 "/></g><g stroke-linejoin="miter" stroke-opacity="1.0" fill-opacity="0.0" stroke="rgb(0,0,0)" stroke-width="0.9999999999999997" fill="rgb(0,0,0)" stroke-linecap="butt" stroke-miterlimit="10.0"><path d="M 490.9845,170.0000 v -2.0000 "/></g><g stroke-linejoin="miter" stroke-opacity="1.0" fill-opacity="0.0" stroke="rgb(0,0,0)" stroke-width="0.9999999999999997" fill="rgb(0,0,0)" stroke-linecap="butt" stroke-miterlimit="10.0"><path d="M 504.7904,170.0000 v -2.0000 "/></g><g stroke-linejoin="miter" stroke-opacity="1.0" fill-opacity="0.0" stroke="rgb(0,0,0)" stroke-width="0.9999999999999997" fill="rgb(0,0,0)" stroke-linecap="butt" stroke-miterlimit="10.0"><path d="M 518.5964,170.0000 v -2.0000 "/></g><g stroke-linejoin="miter" stroke-opacity="1.0" fill-opacity="0.0" stroke="rgb(0,0,0)" stroke-width="0.9999999999999997" fill="rgb(0,0,0)" stroke-linecap="butt" stroke-miterlimit="10.0"><path d="M 532.4023,170.0000 v -2.0000 "/></g><g stroke-linejoin="miter" stroke-opacity="1.0" fill-opacity="0.0" stroke="rgb(0,0,0)" stroke-width="0.9999999999999997" fill="rgb(0,0,0)" stroke-linecap="butt" stroke-miterlimit="10.0"><path d="M 546.2082,170.0000 v -2.0000 "/></g><g stroke-linejoin="miter" stroke-opacity="1.0" fill-opacity="0.0" stroke="rgb(0,0,0)" stroke-width="0.9999999999999997" fill="rgb(0,0,0)" stroke-linecap="butt" stroke-miterlimit="10.0"><path d="M 560.0142,170.0000 v -2.0000 "/></g><g stroke-linejoin="miter" stroke-opacity="1.0" fill-opacity="0.0" stroke="rgb(0,0,0)" stroke-width="0.9999999999999997" fill="rgb(0,0,0)" stroke-linecap="butt" stroke-miterlimit="10.0"><path d="M 573.8201,170.0000 v -2.0000 "/></g><g stroke-linejoin="miter" stroke-opacity="1.0" fill-opacity="0.0" stroke="rgb(0,0,0)" stroke-width="0.9999999999999997" fill="rgb(0,0,0)" stroke-linecap="butt" stroke-miterlimit="10.0"><path d="M 587.6261,170.0000 v -2.0000 "/></g><g stroke-linejoin="miter" stroke-opacity="1.0" fill-opacity="0.0" stroke="rgb(0,0,0)" stroke-width="0.9999999999999997" fill="rgb(0,0,0)" stroke-linecap="butt" stroke-miterlimit="10.0"><path d="M 35.3887,170.0000 v -5.0000 "/></g><g stroke-linejoin="miter" stroke-opacity="1.0" fill-opacity="0.0" stroke="rgb(0,0,0)" stroke-width="0.9999999999999997" fill="rgb(0,0,0)" stroke-linecap="butt" stroke-miterlimit="10.0"><path d="M 173.4480,170.0000 v -5.0000 "/></g><g stroke-linejoin="miter" stroke-opacity="1.0" fill-opacity="0.0" stroke="rgb(0,0,0)" stroke-width="0.9999999999999997" fill="rgb(0,0,0)" stroke-linecap="butt" stroke-miterlimit="10.0"><path d="M 311.5074,170.0000 v -5.0000 "/></g><g stroke-linejoin="miter" stroke-opacity="1.0" fill-opacity="0.0" stroke="rgb(0,0,0)" stroke-width="0.9999999999999997" fill="rgb(0,0,0)" stroke-linecap="butt" stroke-miterlimit="10.0"><path d="M 449.5667,170.0000 v -5.0000 "/></g><g stroke-linejoin="miter" stroke-opacity="1.0" fill-opacity="0.0" stroke="rgb(0,0,0)" stroke-width="0.9999999999999997" fill="rgb(0,0,0)" stroke-linecap="butt" stroke-miterlimit="10.0"><path d="M 587.6261,170.0000 v -5.0000 "/></g><g stroke-linejoin="bevel" stroke-opacity="0.0" fill-opacity="1.0" stroke="rgb(0,0,0)" stroke-width="0.0" fill="rgb(0,0,0)" stroke-linecap="butt" stroke-miterlimit="10.0"><path d="M 33.2405,190.0000 ZM 35.8561,190.1261 c -1.0189,-0.0000 -1.5861,-0.9034 -1.5861 -0.9034c -0.5672,-0.9034 -0.5672,-2.5945 -0.5672 -2.5945c 0.0000,-1.6912 0.5672,-2.5735 0.5672 -2.5735c 0.5672,-0.8824 1.5861,-0.8824 1.5861 -0.8824c 1.0084,0.0000 1.5756,0.8824 1.5756 0.8824c 0.5672,0.8824 0.5672,2.5735 0.5672 2.5735c 0.0000,1.6912 -0.5672,2.5945 -0.5672 2.5945c -0.5672,0.9034 -1.5756,0.9034 -1.5756 0.9034ZM 35.8561,190.1261 ZM 35.8561,189.4328 c 0.2941,0.0000 0.5305,-0.1628 0.5305 -0.1628c 0.2363,-0.1628 0.4097,-0.5042 0.4097 -0.5042c 0.1733,-0.3414 0.2679,-0.8718 0.2679 -0.8718c 0.0945,-0.5305 0.0945,-1.2658 0.0945 -1.2658c 0.0000,-0.7353 -0.0945,-1.2605 -0.0945 -1.2605c -0.0945,-0.5252 -0.2679,-0.8561 -0.2679 -0.8561c -0.1733,-0.3309 -0.4097,-0.4884 -0.4097 -0.4884c -0.2363,-0.1576 -0.5305,-0.1576 -0.5305 -0.1576c -0.2941,-0.0000 -0.5357,0.1576 -0.5357 0.1576c -0.2416,0.1576 -0.4149,0.4884 -0.4149 0.4884c -0.1733,0.3309 -0.2679,0.8561 -0.2679 0.8561c -0.0945,0.5252 -0.0945,1.2605 -0.0945 1.2605c 0.0000,1.4706 0.3624,2.1376 0.3624 2.1376c 0.3624,0.6670 0.9506,0.6670 0.9506 0.6670Z"/></g><g stroke-linejoin="bevel" stroke-opacity="0.0" fill-opacity="1.0" stroke="rgb(0,0,0)" stroke-width="0.0" fill="rgb(0,0,0)" stroke-linecap="butt" stroke-miterlimit="10.0"><path d="M 171.5572,190.0000 ZM 172.3871,189.2857 h 1.5336 v -4.9370 h -1.2185 v -0.5567 c 0.4622,-0.0840 0.8036,-0.2048 0.8036 -0.2048c 0.3414,-0.1208 0.6145,-0.2889 0.6145 -0.2889h 0.6618 v 5.9874 h 1.3866 v 0.7143 h -3.7815 v -0.7143 Z"/></g><g stroke-linejoin="bevel" stroke-opacity="0.0" fill-opacity="1.0" stroke="rgb(0,0,0)" stroke-width="0.0" fill="rgb(0,0,0)" stroke-linecap="butt" stroke-miterlimit="10.0"><path d="M 309.3225,190.0000 ZM 309.7426,189.4853 c 0.7563,-0.7563 1.3445,-1.3655 1.3445 -1.3655c 0.5882,-0.6092 0.9874,-1.1292 0.9874 -1.1292c 0.3992,-0.5200 0.6092,-0.9559 0.6092 -0.9559c 0.2101,-0.4359 0.2101,-0.8456 0.2101 -0.8456c 0.0000,-0.5777 -0.3151,-0.9454 -0.3151 -0.9454c -0.3151,-0.3676 -0.9559,-0.3676 -0.9559 -0.3676c -0.4202,-0.0000 -0.7773,0.2363 -0.7773 0.2363c -0.3571,0.2363 -0.6513,0.5725 -0.6513 0.5725l -0.4937,-0.4937 c 0.4202,-0.4622 0.8929,-0.7405 0.8929 -0.7405c 0.4727,-0.2784 1.1345,-0.2784 1.1345 -0.2784c 0.9349,0.0000 1.4706,0.5410 1.4706 0.5410c 0.5357,0.5410 0.5357,1.4338 0.5357 1.4338c 0.0000,0.4727 -0.2048,0.9506 -0.2048 0.9506c -0.2048,0.4779 -0.5672,0.9874 -0.5672 0.9874c -0.3624,0.5095 -0.8613,1.0609 -0.8613 1.0609c -0.4989,0.5515 -1.0977,1.1712 -1.0977 1.1712c 0.2731,-0.0210 0.5672,-0.0420 0.5672 -0.0420c 0.2941,-0.0210 0.5567,-0.0210 0.5567 -0.0210h 1.9433 v 0.7458 h -4.3277 v -0.5147 Z"/></g><g stroke-linejoin="bevel" stroke-opacity="0.0" fill-opacity="1.0" stroke="rgb(0,0,0)" stroke-width="0.0" fill="rgb(0,0,0)" stroke-linecap="butt" stroke-miterlimit="10.0"><path d="M 447.3608,190.0000 ZM 448.0751,188.6134 c 0.3046,0.3151 0.7090,0.5567 0.7090 0.5567c 0.4044,0.2416 1.0032,0.2416 1.0032 0.2416c 0.6092,0.0000 0.9979,-0.3309 0.9979 -0.3309c 0.3887,-0.3309 0.3887,-0.8981 0.3887 -0.8981c 0.0000,-0.2941 -0.1103,-0.5410 -0.1103 -0.5410c -0.1103,-0.2468 -0.3624,-0.4254 -0.3624 -0.4254c -0.2521,-0.1786 -0.6618,-0.2731 -0.6618 -0.2731c -0.4097,-0.0945 -1.0084,-0.0945 -1.0084 -0.0945v -0.6618 c 0.5357,0.0000 0.8981,-0.0945 0.8981 -0.0945c 0.3624,-0.0945 0.5882,-0.2626 0.5882 -0.2626c 0.2258,-0.1681 0.3204,-0.3992 0.3204 -0.3992c 0.0945,-0.2311 0.0945,-0.4937 0.0945 -0.4937c 0.0000,-0.4937 -0.3099,-0.7773 -0.3099 -0.7773c -0.3099,-0.2836 -0.8456,-0.2836 -0.8456 -0.2836c -0.4202,-0.0000 -0.7721,0.1891 -0.7721 0.1891c -0.3519,0.1891 -0.6565,0.4937 -0.6565 0.4937l -0.4622,-0.5462 c 0.3887,-0.3676 0.8561,-0.6040 0.8561 -0.6040c 0.4674,-0.2363 1.0662,-0.2363 1.0662 -0.2363c 0.4412,0.0000 0.8088,0.1155 0.8088 0.1155c 0.3676,0.1155 0.6355,0.3309 0.6355 0.3309c 0.2679,0.2153 0.4149,0.5305 0.4149 0.5305c 0.1471,0.3151 0.1471,0.7248 0.1471 0.7248c 0.0000,0.6092 -0.3361,0.9979 -0.3361 0.9979c -0.3361,0.3887 -0.8824,0.5987 -0.8824 0.5987v 0.0420 c 0.3046,0.0735 0.5672,0.2153 0.5672 0.2153c 0.2626,0.1418 0.4622,0.3571 0.4622 0.3571c 0.1996,0.2153 0.3099,0.4989 0.3099 0.4989c 0.1103,0.2836 0.1103,0.6303 0.1103 0.6303c 0.0000,0.4412 -0.1733,0.7983 -0.1733 0.7983c -0.1733,0.3571 -0.4727,0.6040 -0.4727 0.6040c -0.2994,0.2468 -0.6985,0.3782 -0.6985 0.3782c -0.3992,0.1313 -0.8613,0.1313 -0.8613 0.1313c -0.3992,-0.0000 -0.7300,-0.0788 -0.7300 -0.0788c -0.3309,-0.0788 -0.6040,-0.2101 -0.6040 -0.2101c -0.2731,-0.1313 -0.4884,-0.2994 -0.4884 -0.2994c -0.2153,-0.1681 -0.3834,-0.3571 -0.3834 -0.3571Z"/></g><g stroke-linejoin="bevel" stroke-opacity="0.0" fill-opacity="1.0" stroke="rgb(0,0,0)" stroke-width="0.0" fill="rgb(0,0,0)" stroke-linecap="butt" stroke-miterlimit="10.0"><path d="M 585.2521,190.0000 ZM 588.4454,187.4580 v -1.9433 c 0.0000,-0.2731 0.0158,-0.6460 0.0158 -0.6460c 0.0158,-0.3729 0.0368,-0.6460 0.0368 -0.6460h -0.0420 c -0.1261,0.2416 -0.2626,0.4727 -0.2626 0.4727c -0.1366,0.2311 -0.2836,0.4727 -0.2836 0.4727l -1.5651,2.2899 h 2.1008 ZM 588.4454,187.4580 ZM 590.1786,188.1513 h -0.9139 v 1.8487 h -0.8193 v -1.8487 h -3.0147 v -0.5672 l 2.8676,-4.2857 h 0.9664 v 4.1597 h 0.9139 v 0.6933 Z"/></g></svg>